# xmcd CD database file
#
# Track frame offsets:
#	150
#	29230
#	54720
#	75680
#	94325
#	114667
#	128982
#	147177
#
# Disc length: 2433 seconds
#
# Revision: 14
# Processed by: cddbd v1.5.2PL0 Copyright (c) Steve Scherf et al.
# Submitted via: CDex 1.70beta2
#
DISCID=75097f08
DTITLE=The Rolling Stones - LOVE YOU LIVE [Disc2]
DYEAR=1977
DGENRE=Rock
TTITLE0=Mannish Boy
TTITLE1=Crackin' Up
TTITLE2=Little Red Rooster
TTITLE3=Around And Around
TTITLE4=It's Only Rock 'N Roll
TTITLE5=Brown Sugar
TTITLE6=Jumpin' Jack Flash
TTITLE7=Sympathy For The Devil
EXTD=YEAR: 1977
EXTT0=
EXTT1=
EXTT2=
EXTT3=
EXTT4=
EXTT5=
EXTT6=
EXTT7=
PLAYORDER=
